<svg width="37" height="37" viewBox="0 0 37 37" fill="none" xmlns="http://www.w3.org/2000/svg">
<rect width="37" height="37" fill="#EBEBEB"/>
<g clip-path="url(#clip0_0_1)">
<rect width="2560" height="1600" transform="translate(-1958 -913)" fill="white"/>
<rect x="-1958" y="-913" width="2560" height="1600" fill="#ECF2FF"/>
<g filter="url(#filter0_d_0_1)">
<rect x="-75" y="-202" width="607" height="566" rx="75" fill="white"/>
<rect x="-74.5" y="-201.5" width="606" height="565" rx="74.5" stroke="#E2E7FB"/>
</g>
<path d="M2 15.0264H35V33.2632C35 34.2225 34.2224 35.0001 33.2632 35.0001H3.73684C2.77761 35.0001 2 34.2225 2 33.2632V15.0264Z" stroke="#7C7D8F" stroke-width="3" stroke-linejoin="round"/>
<path d="M2 6.34231C2 5.38308 2.77761 4.60547 3.73684 4.60547H33.2632C34.2224 4.60547 35 5.38308 35 6.34231V15.0265H2V6.34231Z" stroke="#7C7D8F" stroke-width="3" stroke-linejoin="round"/>
<path d="M11.5525 2V8.94737" stroke="#7C7D8F" stroke-width="3" stroke-linecap="round" stroke-linejoin="round"/>
<path d="M25.4475 2V8.94737" stroke="#7C7D8F" stroke-width="3" stroke-linecap="round" stroke-linejoin="round"/>
</g>
<defs>
<filter id="filter0_d_0_1" x="-77" y="-202" width="615" height="574" filterUnits="userSpaceOnUse" color-interpolation-filters="sRGB">
<feFlood flood-opacity="0" result="BackgroundImageFix"/>
<feColorMatrix in="SourceAlpha" type="matrix" values="0 0 0 0 0 0 0 0 0 0 0 0 0 0 0 0 0 0 127 0" result="hardAlpha"/>
<feOffset dx="2" dy="4"/>
<feGaussianBlur stdDeviation="2"/>
<feComposite in2="hardAlpha" operator="out"/>
<feColorMatrix type="matrix" values="0 0 0 0 0.196078 0 0 0 0 0.317647 0 0 0 0 0.803922 0 0 0 0.25 0"/>
<feBlend mode="normal" in2="BackgroundImageFix" result="effect1_dropShadow_0_1"/>
<feBlend mode="normal" in="SourceGraphic" in2="effect1_dropShadow_0_1" result="shape"/>
</filter>
<clipPath id="clip0_0_1">
<rect width="2560" height="1600" fill="white" transform="translate(-1958 -913)"/>
</clipPath>
</defs>
</svg>
