<svg width="63" height="44" viewBox="0 0 63 44" fill="none" xmlns="http://www.w3.org/2000/svg">
<rect width="63" height="44" fill="#EBEBEB"/>
<g clip-path="url(#clip0_0_1)">
<rect width="2560" height="1600" transform="translate(-92 -574)" fill="white"/>
<rect x="-92" y="-574" width="2560" height="1600" fill="#ECF2FF"/>
<path d="M-92 -574H478C516.66 -574 548 -542.66 548 -504V956C548 994.66 516.66 1026 478 1026H-92V-574Z" fill="#3251CD"/>
<rect x="-52" y="-46" width="560" height="138" rx="42" fill="#3251CD"/>
<path d="M5.31583 0.0967888C6.08461 0.135504 6.85339 0.21017 7.62217 0.21017C23.4126 0.215701 39.2002 0.215701 54.9906 0.215701H57.3412L57.3219 0L58.5193 0.685818C58.9977 0.912581 59.4789 1.14211 59.9573 1.36887C60.3666 1.77815 60.7758 2.18466 61.1824 2.59394C61.5529 3.62543 61.9207 4.65693 62.2913 5.68842C62.3106 6.47656 62.3466 7.26469 62.3466 8.05007C62.3494 17.7096 62.3466 27.3664 62.3521 37.0259C62.3521 39.0308 61.9428 40.9057 60.3334 42.2359C59.0696 43.2812 57.7339 44.3321 55.8756 43.9007C55.6128 43.8398 55.3252 43.8924 55.0487 43.8924C39.3191 43.8924 23.5896 43.8924 7.85999 43.8951C7.27649 43.8951 6.69576 43.9504 6.11226 43.9781C4.81529 44.0417 3.70913 43.5826 2.7523 42.7392C2.36791 42.4018 2.00565 42.0395 1.63232 41.6883C1.33089 41.1408 1.03223 40.596 0.730799 40.0485C0.672726 39.8411 0.614652 39.6337 0.553814 39.4262C0.479148 39.2907 0.407248 39.1525 0.332582 39.017C0.371297 28.4089 0.412778 17.8009 0.437667 7.19279C0.437667 6.5374 0.299397 5.87923 0.224731 5.22383C0.266212 5.12151 0.307693 5.02196 0.346409 4.91964C0.473617 4.62374 0.600825 4.32508 0.728034 4.02918C1.0184 3.5563 1.30877 3.08342 1.59913 2.60777C2.01947 2.18743 2.43981 1.76709 2.86015 1.34675C3.3358 1.07574 3.81145 0.80473 4.2871 0.530956C4.48621 0.450759 4.68532 0.373328 4.88442 0.293132C5.02822 0.226762 5.16926 0.157628 5.31306 0.0912581L5.31583 0.0967888ZM49.1971 7.79842C50.1899 6.98539 51.1799 6.17236 52.3165 5.24042H10.3295C12.3786 6.91072 14.2591 8.47317 16.1728 9.99691C18.681 11.9935 21.2169 13.9487 23.7306 15.937C26.1282 17.8313 28.5064 19.7477 30.9151 21.6282C31.0783 21.7554 31.5041 21.7415 31.6811 21.6171C32.4471 21.064 33.1578 20.4363 33.899 19.8528C36.5676 17.7511 39.2417 15.6549 41.9158 13.5587C41.996 13.5007 42.0762 13.4454 42.1592 13.3873C43.0524 12.6545 43.9373 11.9106 44.8416 11.1916C46.2105 10.1048 47.5932 9.03455 48.9676 7.95881C49.0423 7.90627 49.1197 7.85372 49.1944 7.80118L49.1971 7.79842ZM40.5027 21.0447C40.4253 21.0972 40.3506 21.1497 40.2732 21.2023C38.3485 22.7371 36.4238 24.2719 34.499 25.8067C34.4189 25.8647 34.3359 25.9201 34.2557 25.9781C34.1008 26.1081 33.9487 26.2436 33.7939 26.3708C32.0102 27.8309 30.9704 27.972 29.4577 26.805C27.403 25.2232 25.4147 23.5529 23.3683 21.9628C22.0161 20.9119 20.6085 19.9302 19.2258 18.9181C17.42 17.4662 15.6169 16.0144 13.8111 14.5626C13.6811 14.4105 13.5705 14.2335 13.4157 14.109C11.2697 12.389 9.11824 10.6744 6.96953 8.95988L6.74277 8.79949C6.35561 8.50636 5.96569 8.21322 5.42091 7.80118C5.42091 8.29895 5.42091 8.62803 5.42091 8.95435C5.42091 11.2635 5.42921 13.5753 5.42091 15.8844C5.39049 23.2432 5.33795 30.6019 5.36284 37.9578C5.36284 38.298 5.97122 38.7294 6.38603 38.9395C6.67917 39.0889 7.12439 38.9229 7.50049 38.9229C23.4292 38.9229 39.3551 38.8981 55.2838 38.9478C57.521 38.9534 57.1947 38.3422 57.3716 36.9457C57.3965 36.741 57.3772 36.5336 57.3772 36.3262C57.3772 27.2253 57.3772 18.1244 57.3772 9.02072V7.64632C53.9536 10.3647 50.7485 12.9089 47.5434 15.4558C47.4632 15.5111 47.3803 15.5692 47.3001 15.6245C45.0352 17.4303 42.7703 19.2361 40.5055 21.0447H40.5027Z" fill="white"/>
</g>
<defs>
<clipPath id="clip0_0_1">
<rect width="2560" height="1600" fill="white" transform="translate(-92 -574)"/>
</clipPath>
</defs>
</svg>
