<svg width="67" height="67" viewBox="0 0 67 67" fill="none" xmlns="http://www.w3.org/2000/svg">
<rect width="67" height="67" fill="#EBEBEB"/>
<g clip-path="url(#clip0_0_1)">
<rect width="2560" height="1600" transform="translate(-88 -419)" fill="white"/>
<rect x="-88" y="-419" width="2560" height="1600" fill="#ECF2FF"/>
<path d="M-88 -419H482C520.66 -419 552 -387.66 552 -349V1111C552 1149.66 520.66 1181 482 1181H-88V-419Z" fill="#3251CD"/>
<rect x="-48" y="-35" width="560" height="138" rx="42" fill="#3251CD"/>
<path d="M0 0H67V67H0V0Z" fill="white" fill-opacity="0.01"/>
<path d="M33.5 61.4163C48.918 61.4163 61.4167 48.9176 61.4167 33.4997C61.4167 18.0817 48.918 5.58301 33.5 5.58301C18.0821 5.58301 5.58337 18.0817 5.58337 33.4997C5.58337 48.9176 18.0821 61.4163 33.5 61.4163Z" stroke="white" stroke-width="6" stroke-linecap="round" stroke-linejoin="round"/>
<path d="M33.5 5.58301C38.0538 5.58301 42.5386 6.69701 46.563 8.82789C50.5875 10.9588 54.0296 14.0418 56.5893 17.8081C59.149 21.5745 60.7483 25.91 61.248 30.4362C61.7477 34.9627 61.1326 39.5424 59.4562 43.7765C57.7798 48.0105 55.0931 51.7702 51.6305 54.7277C48.1677 57.6851 44.0339 59.7507 39.5899 60.744C35.1457 61.7374 30.526 61.6285 26.1335 60.4268C21.7411 59.2253 17.7093 56.9674 14.3898 53.8501L33.5 33.4997V5.58301Z" stroke="white" stroke-width="6" stroke-linecap="round" stroke-linejoin="round"/>
</g>
<defs>
<clipPath id="clip0_0_1">
<rect width="2560" height="1600" fill="white" transform="translate(-88 -419)"/>
</clipPath>
</defs>
</svg>
