<svg width="110" height="100" viewBox="0 0 110 100" fill="none" xmlns="http://www.w3.org/2000/svg">
<rect width="110" height="100" fill="#EBEBEB"/>
<g id="dashboard_Store shelf compliance_clothing" clip-path="url(#clip0_0_1)">
<rect width="2560" height="1600" transform="translate(-831 -1108)" fill="white"/>
<rect id="background" x="-831" y="-1108" width="2560" height="1600" fill="#ECF2FF"/>
<g id="catagory card">
<g id="Rectangle 40" filter="url(#filter0_d_0_1)">
<rect x="-142" y="-865" width="1153" height="1178" rx="105" fill="white"/>
</g>
<g id="Toys card">
<g id="men&#39;s wear selected button">
<rect id="Rectangle 6" x="-73" y="-54" width="474" height="267.178" rx="28" fill="url(#paint0_linear_0_1)" stroke="white" stroke-width="4"/>
<g id="Layer_1-2">
<path id="Vector" d="M109.06 79.5475C108.377 80.4494 108.258 81.6216 107.506 82.5207C106.058 84.2562 104.311 85.6503 102.525 86.9761C99.8502 88.9649 96.9823 90.6833 93.9608 92.0888C88.8509 94.4645 83.5505 96.2711 78.0253 97.4718C74.5144 98.2343 70.9779 98.7805 67.4386 99.3097C65.3019 99.6284 63.114 99.6142 60.9488 99.7678C58.1322 99.9698 55.3098 99.9698 52.4874 99.9983C50.2967 100.018 48.106 99.8645 45.938 99.7109C42.7344 99.4833 39.5364 99.0508 36.3471 98.5472C29.8744 97.5258 23.6066 95.8131 17.5863 93.2895C12.9858 91.3605 8.6498 88.9222 4.79466 85.6816C3.49728 84.5919 2.20275 83.5022 1.24963 82.111C-1.4134 78.2302 0.293672 72.4575 5.28686 71.1459C7.69384 70.5142 10.2943 70.8784 12.2688 72.9013C12.7781 73.422 13.2276 74.3324 13.9303 74.2442C14.5221 74.1702 14.5136 73.1403 14.8209 72.557C16.7669 68.8755 18.9406 65.3475 21.726 62.2236C22.386 61.481 22.4572 60.6047 21.8938 59.7398C21.5211 59.1707 21.2025 58.2404 20.7302 58.1493C20.1754 58.0412 19.669 58.9346 19.1056 59.3073C17.3616 60.4596 15.5435 61.4099 13.3812 61.6972C9.8732 62.161 6.56432 61.6574 3.38632 60.1608C2.25396 59.626 1.38904 58.7411 0.606636 57.8136C-0.474511 56.5305 0.000624606 54.9713 1.61665 54.3995C4.07768 53.5289 6.00668 51.8446 6.54156 49.2214C6.96264 47.1529 6.76632 45.0191 5.84451 42.9792C4.65524 40.3503 4.28538 37.5848 4.71215 34.6714C5.0621 32.2786 5.69656 30.0139 7.11343 28.0792C9.04527 25.4418 11.603 23.786 15.0172 23.766C17.5636 23.7518 20.0929 23.6494 22.4515 24.9496C24.8841 26.2897 26.7476 28.1134 27.7491 30.7138C28.0336 31.4536 28.4718 31.5731 29.0692 31.4052C30.5658 30.9813 32.0908 30.8703 33.6328 30.8675C41.1183 30.8618 48.6067 30.8219 56.0894 30.8988C57.842 30.9158 58.4622 29.8546 58.6414 28.4377C58.9658 25.8828 59.6031 23.3706 60.3457 20.9038C61.4695 17.1739 63.0059 13.6232 65.1226 10.3285C68.4315 5.17601 72.9439 1.63952 78.9869 0.438883C82.1734 -0.192734 85.4909 -0.235411 88.6006 0.93109C90.2251 1.53995 91.6733 1.49158 93.2267 0.945315C95.5028 0.148681 97.87 0.0576369 100.246 0.151526C101.145 0.185667 101.597 0.697789 101.617 1.62814C101.674 4.08349 100.84 6.26285 99.3836 8.1577C98.6865 9.0653 98.7491 9.64001 99.3039 10.559C101.919 14.9006 104.414 19.3049 106.414 23.9823C107.871 27.3907 106.983 33.9231 103.976 36.2277C102.801 37.1296 101.517 37.7214 100.103 38.0144C96.5015 38.7627 93.6194 37.3828 91.1071 34.899C90.3731 34.1735 89.4883 33.65 88.4896 33.2801C87.8694 33.0497 87.7072 33.1407 87.7783 33.7382C87.9462 35.1835 88.1937 36.6231 88.3075 38.0742C88.5323 40.942 88.7827 43.7957 88.4754 46.692C88.2592 48.7291 88.0799 50.7549 87.5507 52.7379C87.3658 53.4293 87.1809 54.1263 86.9077 54.7864C86.5976 55.5318 86.8138 56.0838 87.3146 56.6357C89.8638 59.4581 92.3419 62.3374 94.3534 65.5865C95.4289 67.322 96.4588 69.0888 97.2953 70.9496C97.6538 71.7462 97.8586 71.8714 98.752 71.5385C102.786 70.0334 107.535 71.5698 108.838 76.5857C108.881 76.7451 108.812 76.9499 109.057 76.9926V79.5475H109.06ZM97.5143 3.96114C97.0364 3.96114 96.6011 3.89855 96.1885 3.97253C94.4672 4.28264 92.6321 4.38791 91.3803 5.82755C90.8255 6.46485 90.2223 7.01681 89.6106 7.59152C87.2776 9.78511 84.4922 10.852 81.3455 10.9744C79.8291 11.0341 78.6057 11.6117 77.5473 12.6018C75.0436 14.9462 73.7917 17.9961 72.8841 21.1969C72.022 24.227 71.3961 27.331 69.8854 30.1391C68.3547 32.9842 66.1668 34.7681 62.727 34.5121C62.1637 34.4694 61.5861 34.5547 61.0257 34.495C60.2546 34.4125 59.9701 34.6344 60.0014 35.4709C60.0697 37.3856 60.0526 39.3033 60.0128 41.218C59.9786 42.9962 59.7254 44.7517 58.9174 46.3592C57.0169 50.1432 53.8986 52.2173 49.722 52.7038C49.2042 52.7635 49.079 52.8944 49.0818 53.3866C49.1017 56.4024 49.1017 59.4183 49.0818 62.4341C49.079 62.969 49.2269 63.3303 49.776 63.1312C50.365 62.9178 50.9539 63.0117 51.5343 62.9292C55.3496 62.3715 59.0711 61.3387 62.8864 60.7555C65.262 60.3913 67.6463 60.2234 70.0248 59.993C72.2696 59.7739 74.5314 60.1011 76.7848 59.7768C78.2842 59.5605 79.8177 59.7398 81.0041 60.7982C82.4779 62.1126 83.8805 63.5209 85.0982 65.0801C87.5507 68.2182 89.6447 71.584 91.2636 75.2371C91.8782 76.6227 91.918 76.6057 93.258 75.718C94.8086 74.6909 94.7887 74.6994 94.1742 72.9781C94.0575 72.6481 93.9238 72.338 93.7702 72.0279C91.531 67.5525 88.7599 63.4527 85.2376 59.8763C83.4111 58.0213 82.5433 55.8533 83.542 53.3069C84.6629 50.4419 84.8222 47.4403 84.9759 44.4415C85.0925 42.1996 84.808 39.9605 84.5833 37.7271C84.3699 35.6245 84.0711 33.539 83.6273 31.4763C83.3655 30.2615 84.1167 29.1092 85.3543 29.1092C87.343 29.1092 89.2919 29.4506 91.0275 30.4435C91.6591 30.8049 91.9521 30.7935 92.433 30.3041C95.1728 27.5244 97.9326 24.7647 100.712 22.0248C101.139 21.6037 101.17 21.3135 100.9 20.7872C99.0962 17.2877 97.0961 13.902 95.0533 10.5419C94.1116 8.98848 94.1087 8.56171 95.409 7.30985C96.382 6.37096 96.9994 5.2386 97.5087 3.96399L97.5143 3.96114ZM56.8462 85.289C59.4409 85.3004 61.7768 85.1496 64.1211 84.939C66.2038 84.7541 68.275 84.4781 70.3292 84.1765C73.4133 83.7213 76.4661 83.0271 79.4564 82.0996C82.4096 81.1835 85.3116 80.145 88.0714 78.7338C88.4498 78.5403 88.7058 78.4721 88.4669 77.9087C86.3046 72.8188 83.394 68.2438 79.4877 64.2948C78.5288 63.3246 77.5103 63.2336 76.3409 63.4527C76.1048 63.4982 75.8743 63.5778 75.6268 63.575C72.3578 63.5551 69.0887 63.5437 65.8368 63.9961C63.8537 64.272 61.8593 64.4854 59.9104 64.9492C56.078 65.8596 52.2001 66.4884 48.2966 66.9721C45.773 67.285 43.2266 67.2651 40.6887 67.2168C38.5094 67.1741 36.2987 67.4472 34.1592 66.9465C33.2573 66.7359 32.5033 66.7957 31.8119 67.2993C31.3994 67.598 31.149 68.1073 30.782 68.48C27.7036 71.6068 25.4417 75.2684 23.7033 79.2744C23.4956 79.7552 23.4074 79.9629 24.0732 80.2218C26.4603 81.1493 28.8701 82 31.351 82.6402C35.4309 83.6929 39.5535 84.5179 43.7615 84.8992C44.7402 84.9874 45.7388 84.9134 46.6862 85.1154C48.4559 85.4938 50.2569 85.3373 52.0237 85.4113C53.6852 85.4824 55.4065 85.5052 56.8433 85.2861L56.8462 85.289ZM63.572 95.8757C64.4142 96.035 65.0543 95.7761 65.7087 95.7448C68.5567 95.6139 71.3677 95.1445 74.1502 94.621C78.435 93.813 82.6827 92.7887 86.7683 91.2324C89.8752 90.0489 92.9052 88.6917 95.8044 87.0302C98.6695 85.3914 101.29 83.4482 103.774 81.3001C105.074 80.1763 105.629 77.8831 105.034 76.5687C103.964 74.2015 100.314 74.1276 98.9938 75.6326C96.6949 78.2501 93.6933 79.9743 90.6775 81.596C85.6217 84.3131 80.1449 85.932 74.5798 87.1611C70.2894 88.1085 65.8965 88.6974 61.5093 88.8511C57.6798 88.9848 53.8417 89.1526 49.9923 88.9592C46.6379 88.7885 43.3062 88.521 39.9774 88.0829C37.6814 87.7813 35.4281 87.3147 33.1719 86.8339C29.2086 85.9889 25.3564 84.7854 21.6463 83.158C17.518 81.3456 13.5633 79.2118 10.3 76.0281C9.33547 75.0864 8.35106 74.5998 6.96833 74.6169C5.30109 74.6368 4.45893 75.5274 3.8643 76.8902C3.3977 77.9542 3.69644 79.5873 4.49592 80.4779C5.79329 81.9203 7.24146 83.2206 8.81197 84.3273C14.5392 88.3589 20.8611 91.1499 27.6182 92.9594C31.0068 93.867 34.4124 94.6551 37.9005 95.1331C40.3075 95.4631 42.7144 95.7363 45.1328 95.9724C46.5411 96.109 47.9552 95.9895 49.3407 96.1886C52.2257 96.5983 55.1192 96.3224 57.9899 96.2797C59.8848 96.2512 61.8536 96.4845 63.572 95.8814V95.8757ZM34.5632 39.2207C34.5632 38.5066 34.5888 37.9035 34.5575 37.3031C34.5091 36.4325 34.953 35.2746 34.3754 34.771C33.886 34.3442 32.7594 34.6173 31.9144 34.6344C28.5998 34.6913 25.9794 36.1025 24.096 38.811C22.1499 41.6106 21.4159 44.7602 21.5553 48.1487C21.689 51.4405 22.6137 54.4478 24.5825 57.1109C26.4119 59.5861 26.3977 62.4028 24.4943 64.5623C21.8881 67.5212 19.8226 70.8244 18.0046 74.2983C16.784 76.6284 16.8608 76.6739 19.1597 77.9315C19.9876 78.3839 20.292 78.2245 20.6335 77.3966C22.6108 72.5826 25.5868 68.4259 29.2456 64.7699C30.5601 63.4555 32.1903 62.7897 34.1705 63.3246C34.6741 63.4612 35.246 63.6034 35.8036 63.5807C38.7626 63.4555 41.73 63.7941 44.6918 63.4043C45.3718 63.3132 45.4771 63.1368 45.4714 62.5365C45.4429 59.8422 45.46 57.1479 45.4571 54.4507C45.4571 53.9215 45.6136 53.2899 45.3803 52.8887C45.1413 52.479 44.467 52.7891 43.9862 52.7209C43.7131 52.681 43.4713 52.553 43.201 52.4876C39.2605 51.5231 36.5861 49.1189 35.1208 45.3321C34.3356 43.3007 34.6229 41.1953 34.5603 39.2207H34.5632ZM4.94829 56.8975C7.42355 57.99 9.86466 58.4765 12.5419 58.0924C14.9944 57.7425 16.9177 56.6727 18.4712 54.8319C18.9434 54.2714 18.9321 53.6597 18.6874 52.9428C17.666 49.9298 17.6404 46.7973 18.2208 43.7416C19.0089 39.5963 20.8326 35.9289 24.4232 33.4195C24.8329 33.1322 24.8243 32.9131 24.6849 32.5717C23.9196 30.7252 22.7559 29.2372 20.9777 28.2357C19.1028 27.1802 17.0714 27.4163 15.0627 27.3879C13.5235 27.3651 12.2489 28.0223 11.1421 28.9868C8.11207 31.6271 7.36665 37.3942 8.94284 41.0331C9.987 43.4458 10.5532 45.8584 10.3256 48.53C10.1065 51.0621 9.1164 53.0907 7.40079 54.8888C6.67528 55.6485 5.73355 56.1265 4.95114 56.9003L4.94829 56.8975ZM47.2524 34.5092C44.5239 34.5092 41.7955 34.5291 39.067 34.495C38.3813 34.4865 38.1594 34.6657 38.1765 35.3798C38.2277 37.5763 38.259 39.7755 38.185 41.9691C38.0854 44.985 40.6233 47.8785 43.0075 48.6865C45.1043 49.4006 47.2467 49.0307 49.3635 49.025C52.8431 49.0137 55.9727 45.921 56.2771 42.4329C56.4848 40.0629 56.3027 37.6929 56.3966 35.3229C56.4222 34.6515 56.1833 34.4865 55.5459 34.4922C52.7833 34.5235 50.0179 34.5064 47.2553 34.5035L47.2524 34.5092ZM87.6759 4.39645C85.2661 3.69086 82.8819 3.61689 80.4294 3.94407C75.8829 4.55293 72.4232 6.98836 69.6065 10.3741C67.1654 13.3074 65.5722 16.7528 64.3459 20.369C63.1965 23.7518 62.4767 27.2286 61.8963 30.7906C62.3116 30.7906 62.7384 30.7508 63.1567 30.7963C64.6247 30.9557 65.5665 30.2501 66.3034 29.058C67.4528 27.1973 68.0645 25.1289 68.6079 23.0548C69.672 18.9891 70.8584 14.986 73.5129 11.6117C75.2854 9.35834 77.4932 7.67118 80.4152 7.40943C83.155 7.16475 85.6843 6.61849 87.6788 4.3936L87.6759 4.39645ZM98.3138 34.384C99.6795 34.5974 100.9 34.2446 101.816 33.2289C103.705 31.1264 103.802 28.6028 103.267 26.008C103.062 25.0151 102.835 24.998 102.092 25.7406C99.8104 28.0138 97.557 30.3127 95.2496 32.5575C94.6294 33.1606 94.8399 33.4167 95.4431 33.7837C96.3422 34.3271 97.2839 34.5491 98.3167 34.384H98.3138Z" fill="white"/>
<path id="Vector_2" d="M92.6349 16.5313C93.9181 16.537 94.3904 16.978 94.3705 18.1559C94.3534 19.311 93.7104 19.9397 92.5439 19.9369C91.6875 19.9369 90.7486 18.9809 90.7515 18.1189C90.7572 17.1629 91.5111 16.5256 92.6349 16.5313Z" fill="white"/>
</g>
</g>
</g>
</g>
</g>
<defs>
<filter id="filter0_d_0_1" x="-144" y="-865" width="1161" height="1186" filterUnits="userSpaceOnUse" color-interpolation-filters="sRGB">
<feFlood flood-opacity="0" result="BackgroundImageFix"/>
<feColorMatrix in="SourceAlpha" type="matrix" values="0 0 0 0 0 0 0 0 0 0 0 0 0 0 0 0 0 0 127 0" result="hardAlpha"/>
<feOffset dx="2" dy="4"/>
<feGaussianBlur stdDeviation="2"/>
<feComposite in2="hardAlpha" operator="out"/>
<feColorMatrix type="matrix" values="0 0 0 0 0.196078 0 0 0 0 0.317647 0 0 0 0 0.803922 0 0 0 0.25 0"/>
<feBlend mode="normal" in2="BackgroundImageFix" result="effect1_dropShadow_0_1"/>
<feBlend mode="normal" in="SourceGraphic" in2="effect1_dropShadow_0_1" result="shape"/>
</filter>
<linearGradient id="paint0_linear_0_1" x1="164" y1="-56" x2="164" y2="215.178" gradientUnits="userSpaceOnUse">
<stop stop-color="#5CD47E"/>
<stop offset="1" stop-color="#4CCF9D"/>
</linearGradient>
<clipPath id="clip0_0_1">
<rect width="2560" height="1600" fill="white" transform="translate(-831 -1108)"/>
</clipPath>
</defs>
</svg>
