<svg width="36" height="31" viewBox="0 0 36 31" fill="none" xmlns="http://www.w3.org/2000/svg">
<g id="&#240;&#159;&#166;&#134; icon &#34;warning&#34;">
<path id="Vector" d="M17.8432 2.75915L32.7993 28.1871H2.88929L17.8432 2.75915ZM17.8432 0C17.0736 0 16.3041 0.443367 15.7219 1.3282L0.489164 27.228C-0.677437 28.9977 0.315178 30.4458 2.69522 30.4458H32.9934C35.3735 30.4458 36.3661 28.9977 35.1995 27.228L19.9667 1.3282C19.3823 0.443367 18.6128 0 17.8432 0Z" fill="#FF6565"/>
<path id="Vector_2" d="M19.7261 24.7378C19.7261 25.7882 18.9195 26.6407 17.9256 26.6407C16.9316 26.6407 16.125 25.7882 16.125 24.7378C16.125 23.6874 16.9316 22.835 17.9256 22.835C18.9195 22.835 19.7261 23.6874 19.7261 24.7378Z" fill="#FF6565"/>
<path id="Vector_3" d="M17.9256 20.9313C16.9316 20.9313 16.125 20.0788 16.125 19.0284V13.3199C16.125 12.2695 16.9316 11.417 17.9256 11.417C18.9195 11.417 19.7261 12.2695 19.7261 13.3199V19.0284C19.7261 20.0788 18.9195 20.9313 17.9256 20.9313Z" fill="#FF6565"/>
</g>
</svg>
