<svg width="63" height="44" viewBox="0 0 63 44" fill="none" xmlns="http://www.w3.org/2000/svg">
<g id="icon mail">
<path id="Vector" d="M5.3157 0.0967888C6.08448 0.135504 6.85326 0.21017 7.62204 0.21017C23.4125 0.215701 39.2001 0.215701 54.9905 0.215701H57.3411L57.3217 0L58.5192 0.685818C58.9976 0.912581 59.4787 1.14211 59.9572 1.36887C60.3664 1.77815 60.7757 2.18466 61.1822 2.59394C61.5528 3.62543 61.9206 4.65693 62.2912 5.68842C62.3105 6.47656 62.3465 7.26469 62.3465 8.05007C62.3492 17.7096 62.3465 27.3664 62.352 37.0259C62.352 39.0308 61.9427 40.9057 60.3333 42.2359C59.0695 43.2812 57.7338 44.3321 55.8754 43.9007C55.6127 43.8398 55.3251 43.8924 55.0486 43.8924C39.319 43.8924 23.5894 43.8924 7.85987 43.8951C7.27637 43.8951 6.69564 43.9504 6.11214 43.9781C4.81517 44.0417 3.70901 43.5826 2.75218 42.7392C2.36779 42.4018 2.00552 42.0395 1.6322 41.6883C1.33077 41.1408 1.03211 40.596 0.730677 40.0485C0.672604 39.8411 0.61453 39.6337 0.553692 39.4262C0.479026 39.2907 0.407126 39.1525 0.33246 39.017C0.371175 28.4089 0.412656 17.8009 0.437545 7.19279C0.437545 6.5374 0.299275 5.87923 0.224609 5.22383C0.26609 5.12151 0.307571 5.02196 0.346287 4.91964C0.473495 4.62374 0.600703 4.32508 0.727911 4.02918C1.01828 3.5563 1.30864 3.08342 1.59901 2.60777C2.01935 2.18743 2.43969 1.76709 2.86003 1.34675C3.33568 1.07574 3.81133 0.80473 4.28698 0.530956C4.48608 0.450759 4.68519 0.373328 4.8843 0.293132C5.0281 0.226762 5.16914 0.157628 5.31294 0.0912581L5.3157 0.0967888ZM49.197 7.79842C50.1898 6.98539 51.1798 6.17236 52.3164 5.24043H10.3294C12.3785 6.91072 14.259 8.47317 16.1726 9.99691C18.6809 11.9935 21.2167 13.9487 23.7305 15.937C26.1281 17.8313 28.5063 19.7477 30.915 21.6282C31.0781 21.7554 31.504 21.7415 31.681 21.6171C32.447 21.064 33.1577 20.4363 33.8988 19.8528C36.5674 17.7511 39.2416 15.6549 41.9157 13.5587C41.9959 13.5007 42.0761 13.4454 42.1591 13.3873C43.0523 12.6545 43.9372 11.9106 44.8415 11.1916C46.2104 10.1048 47.5931 9.03455 48.9675 7.95881C49.0421 7.90627 49.1196 7.85372 49.1942 7.80118L49.197 7.79842ZM40.5026 21.0447C40.4252 21.0972 40.3505 21.1497 40.2731 21.2023C38.3484 22.7371 36.4236 24.2719 34.4989 25.8067C34.4187 25.8647 34.3358 25.9201 34.2556 25.9781C34.1007 26.1081 33.9486 26.2436 33.7938 26.3708C32.0101 27.8309 30.9703 27.972 29.4576 26.805C27.4029 25.2232 25.4146 23.5529 23.3682 21.9628C22.0159 20.9119 20.6083 19.9302 19.2256 18.9181C17.4198 17.4662 15.6168 16.0144 13.811 14.5626C13.681 14.4105 13.5704 14.2335 13.4155 14.109C11.2696 12.389 9.11812 10.6744 6.96941 8.95988L6.74265 8.79949C6.35549 8.50636 5.96557 8.21322 5.42079 7.80118C5.42079 8.29895 5.42079 8.62803 5.42079 8.95435C5.42079 11.2635 5.42908 13.5753 5.42079 15.8844C5.39037 23.2432 5.33783 30.6019 5.36272 37.9578C5.36272 38.298 5.9711 38.7294 6.38591 38.9395C6.67904 39.0889 7.12427 38.9229 7.50037 38.9229C23.429 38.9229 39.355 38.8981 55.2836 38.9478C57.5209 38.9534 57.1945 38.3422 57.3715 36.9457C57.3964 36.741 57.377 36.5336 57.377 36.3262C57.377 27.2253 57.377 18.1244 57.377 9.02072V7.64632C53.9535 10.3647 50.7484 12.9089 47.5433 15.4558C47.4631 15.5111 47.3801 15.5692 47.2999 15.6245C45.0351 17.4303 42.7702 19.2361 40.5054 21.0447H40.5026Z" fill="white"/>
</g>
</svg>
