<svg width="157" height="224" viewBox="0 0 157 224" fill="none" xmlns="http://www.w3.org/2000/svg">
<path id="Vector" d="M78.5124 223.99C73.0928 223.99 67.6782 223.94 62.2586 224C52.5303 224.11 46.7253 216.099 46.4951 207.928C46.4101 204.83 46.1598 201.673 47.6161 198.76C48.2116 197.569 47.1607 197.374 46.5802 197.104C39.1889 193.691 36.2614 187.567 36.4516 179.841C36.5867 174.466 37.8628 169.292 42.6669 165.995C45.2691 164.203 44.028 161.967 43.5776 160.075C41.4458 151.068 37.3273 142.987 30.7868 136.402C27.9243 133.519 24.7316 130.922 21.9242 127.965C12.301 117.842 6.09073 105.918 2.73788 92.357C0.77621 84.4208 0.495971 76.3645 1.21658 68.4232C2.51269 54.1721 7.42687 41.0718 16.3244 29.6679C23.8058 20.0803 32.9436 12.5094 44.0731 7.50547C51.5945 4.12282 59.4061 1.801 67.6732 0.81523C73.9635 0.0646417 80.1988 -0.315658 86.4892 0.34486C101.147 1.89107 114.718 6.48468 126.638 15.2816C139.454 24.739 148.267 37.2138 153.166 52.3506C155.193 58.6105 156.043 65.0806 156.454 71.7008C157.254 84.5309 154.812 96.6504 149.433 108.169C146.42 114.624 142.522 120.614 137.613 125.863C132.784 131.027 127.349 135.596 122.875 141.11C117.606 147.61 115.244 155.341 113.222 163.243C112.932 164.388 113.702 165.029 114.463 165.524C119.207 168.612 120.758 173.305 121.019 178.595C121.254 183.313 120.843 187.832 117.791 191.88C116.28 193.887 114.508 195.508 112.356 196.303C109.984 197.184 110.014 198.515 110.385 200.442C111.255 204.97 111.415 209.439 109.894 213.952C108.218 218.931 102.168 223.95 96.1624 223.97C90.2774 223.99 84.3924 223.97 78.5124 223.97V223.98V223.99ZM94.6061 136.532V156.427C94.6061 162.412 94.6111 162.242 100.701 162.487C103.273 162.587 103.869 161.571 104.304 159.365C106.386 148.731 110.925 139.259 118.261 131.232C122.76 126.309 128.265 122.371 132.388 117.081C140.66 106.463 145.589 94.4136 146.755 81.0331C147.566 71.7258 146.52 62.4385 143.373 53.6066C139.204 41.8974 132.208 32.1048 122.375 24.3437C110.385 14.8813 96.5477 10.713 81.57 9.90736C70.7658 9.33191 60.3719 11.2884 50.3084 15.4367C39.4341 19.9202 30.4214 26.7656 23.5856 36.188C13.5721 49.9888 9.24842 65.4409 11.14 82.5894C12.256 92.6973 15.5288 101.925 20.7382 110.591C25.2971 118.172 31.8477 123.952 38.0529 130.027C45.3792 137.192 49.6428 146.004 52.5903 155.597C53.2709 157.808 52.9857 161.096 54.4069 162.087C56.0433 163.233 59.0859 162.287 61.5029 162.452C63.2994 162.572 63.8549 162.067 63.8449 160.175C63.7648 144.483 63.7598 128.786 63.8449 113.093C63.8549 111.057 63.2194 110.726 61.3428 110.671C56.864 110.541 52.3551 111.352 47.9113 109.711C38.8987 106.388 34.4198 95.7597 38.3782 87.1679C42.782 77.6104 52.4952 75.6039 61.603 78.0458C68.4338 79.8772 73.5332 86.3273 73.398 94.5637C73.293 100.874 73.378 100.874 79.4782 100.874C84.5876 100.874 84.7377 100.869 84.5425 95.6146C84.3574 90.4855 85.7335 85.947 89.2916 82.3191C94.2758 77.2352 100.416 76.5396 107.257 77.6104C114.403 78.7313 120.303 84.9462 121.004 91.5063C122.095 101.739 115.894 107.914 108.983 110.061C105.035 111.287 100.891 110.736 96.838 110.686C94.9914 110.661 94.526 111.187 94.551 113.003C94.6511 120.849 94.5961 128.695 94.5961 136.542L94.6061 136.532ZM78.4774 188.257C87.3399 188.257 96.1974 188.292 105.06 188.242C108.923 188.217 110.945 186.06 110.95 182.217C110.95 181.287 110.845 180.336 110.97 179.42C111.701 174.001 107.897 172.215 103.909 172.26C95.607 172.35 87.3049 172.285 79.0078 172.285C70.3354 172.285 61.658 172.24 52.9857 172.31C48.4668 172.345 46.5001 174.436 46.4901 178.895C46.4901 179.64 46.5402 180.391 46.4801 181.132C46.1498 185.305 48.4418 188.492 53.5812 188.327C61.8732 188.062 70.1803 188.257 78.4824 188.252L78.4774 188.257ZM78.9978 214.147C84.3223 214.147 89.6469 214.203 94.9714 214.127C98.7696 214.077 100.856 211.856 100.861 208.093C100.861 206.972 100.861 205.851 100.861 204.73C100.871 199.986 99.0399 198.175 94.1757 198.17C84.6476 198.16 75.1195 198.27 65.5914 198.135C58.5304 198.03 56.2985 199.161 56.4336 207.162C56.5137 212.061 59.4912 214.338 63.5847 214.193C68.7141 214.012 73.8584 214.147 78.9978 214.147ZM84.7027 136.562C84.7027 128.721 84.6576 120.879 84.7377 113.043C84.7577 111.332 84.4775 110.506 82.5108 110.681C80.379 110.872 78.2071 110.887 76.0803 110.681C73.8985 110.466 73.4881 111.287 73.5031 113.323C73.5982 126.854 73.5231 140.39 73.5782 153.92C73.5882 156.687 72.3672 160.38 74.1187 161.957C75.64 163.323 79.2831 162.172 81.9553 162.457C84.4324 162.722 84.8027 161.731 84.7627 159.52C84.6226 151.869 84.7077 144.213 84.7077 136.562H84.7027ZM100.241 100.864C100.241 100.889 100.241 100.919 100.241 100.944C102.097 100.854 103.969 100.894 105.806 100.654C108.793 100.258 110.309 98.0515 111.25 95.5095C112.096 93.2277 111.08 91.3362 109.634 89.4848C107.172 86.3273 103.789 87.288 100.666 87.258C96.0573 87.218 94.0006 90.7908 94.1407 98.4818C94.2258 103.221 97.9139 99.8729 99.6854 100.854C99.8255 100.934 100.051 100.864 100.236 100.864H100.241ZM57.0891 100.969C57.0891 100.934 57.0892 100.899 57.0942 100.864H57.6496C61.4162 100.864 63.2994 98.9605 63.2994 95.1542C63.2994 92.9575 63.4496 90.8608 61.568 89.0544C59.1609 86.7526 56.2935 87.5482 53.5461 87.1679C50.4535 86.7426 47.4459 89.3797 46.5252 93.4729C45.9597 95.9849 48.7921 99.9179 51.7296 100.613C53.4461 101.019 55.2976 100.869 57.0891 100.969Z" fill="#75BDFF" fill-opacity="0.4"/>
</svg>
