<svg width="67" height="67" viewBox="0 0 67 67" fill="none" xmlns="http://www.w3.org/2000/svg">
<g id="&#240;&#159;&#166;&#134; icon &#34;pie five&#34;">
<path id="Vector" d="M0 0H67V67H0V0Z" fill="white" fill-opacity="0.01"/>
<g id="Group">
<path id="Vector_2" d="M33.4997 61.4163C48.9176 61.4163 61.4163 48.9176 61.4163 33.4997C61.4163 18.0817 48.9176 5.58301 33.4997 5.58301C18.0817 5.58301 5.58301 18.0817 5.58301 33.4997C5.58301 48.9176 18.0817 61.4163 33.4997 61.4163Z" stroke="white" stroke-width="6" stroke-linecap="round" stroke-linejoin="round"/>
<path id="Vector_3" d="M33.4999 5.58301C38.0536 5.58301 42.5384 6.69701 46.5629 8.82789C50.5874 10.9588 54.0295 14.0418 56.5892 17.8081C59.1489 21.5745 60.7482 25.91 61.2479 30.4362C61.7476 34.9627 61.1325 39.5424 59.4561 43.7765C57.7797 48.0105 55.093 51.7702 51.6303 54.7277C48.1676 57.6851 44.0338 59.7507 39.5897 60.744C35.1455 61.7374 30.5259 61.6285 26.1334 60.4268C21.7409 59.2253 17.7092 56.9674 14.3896 53.8501L33.4999 33.4997V5.58301Z" stroke="white" stroke-width="6" stroke-linecap="round" stroke-linejoin="round"/>
</g>
</g>
</svg>
