<svg width="68" height="68" viewBox="0 0 68 68" fill="none" xmlns="http://www.w3.org/2000/svg">
<g id="help icon">
<path id="Vector" d="M0 0H68V68H0V0Z" fill="white" fill-opacity="0.01"/>
<path id="Vector_2" d="M34.0003 62.3337C41.8243 62.3337 48.9076 59.1623 54.035 54.035C59.1623 48.9076 62.3337 41.8243 62.3337 34.0003C62.3337 26.1764 59.1623 19.093 54.035 13.9656C48.9076 8.83831 41.8243 5.66699 34.0003 5.66699C26.1764 5.66699 19.093 8.83831 13.9656 13.9656C8.83831 19.093 5.66699 26.1764 5.66699 34.0003C5.66699 41.8243 8.83831 48.9076 13.9656 54.035C19.093 59.1623 26.1764 62.3337 34.0003 62.3337Z" stroke="white" stroke-width="6" stroke-linejoin="round"/>
<path id="Vector_3" d="M34 40.5514V34.8848C38.6944 34.8848 42.5 31.0792 42.5 26.3848C42.5 21.6904 38.6944 17.8848 34 17.8848C29.3056 17.8848 25.5 21.6904 25.5 26.3848" stroke="white" stroke-width="6" stroke-linecap="round" stroke-linejoin="round"/>
<path id="Vector_4" fill-rule="evenodd" clip-rule="evenodd" d="M33.9997 53.3021C35.9557 53.3021 37.5413 51.7164 37.5413 49.7604C37.5413 47.8044 35.9557 46.2188 33.9997 46.2188C32.0437 46.2188 30.458 47.8044 30.458 49.7604C30.458 51.7164 32.0437 53.3021 33.9997 53.3021Z" fill="white"/>
</g>
</svg>
