<svg width="117" height="133" viewBox="0 0 117 133" fill="none" xmlns="http://www.w3.org/2000/svg">
<g id="&#240;&#159;&#166;&#134; icon &#34;person&#34;">
<g id="Group">
<path id="Vector" d="M58.4656 66.5C76.0006 66.5 90.2156 52.285 90.2156 34.75C90.2156 17.215 76.0006 3 58.4656 3C40.9305 3 26.7156 17.215 26.7156 34.75C26.7156 52.285 40.9305 66.5 58.4656 66.5Z" stroke="#3251CD" stroke-width="6"/>
<path id="Vector_2" d="M90.2155 79.2002H92.4488C102.056 79.2002 110.16 86.3541 111.352 95.8874L113.831 115.725C114.779 123.305 108.868 130 101.229 130H15.7018C8.06285 130 2.15245 123.305 3.09994 115.725L5.57961 95.8874C6.77125 86.3541 14.8752 79.2002 24.4825 79.2002H26.7155" stroke="#3251CD" stroke-width="6" stroke-linecap="round" stroke-linejoin="round"/>
</g>
</g>
</svg>
