<svg width="89" height="90" viewBox="0 0 89 90" fill="none" xmlns="http://www.w3.org/2000/svg">
<rect width="89" height="90" fill="#EBEBEB"/>
<g id="dashboard_Store shelf compliance_clothing" clip-path="url(#clip0_0_1)">
<rect width="2560" height="1600" transform="translate(-839 -451)" fill="white"/>
<rect id="background" x="-839" y="-451" width="2560" height="1600" fill="#ECF2FF"/>
<g id="catagory card">
<g id="Rectangle 40" filter="url(#filter0_d_0_1)">
<rect x="-150" y="-208" width="1153" height="1178" rx="105" fill="white"/>
</g>
<g id="Clothing &#38; acessories button">
<g id="men&#39;s wear selected button">
<rect id="Rectangle 6" x="-83" y="-39" width="478" height="271.178" rx="30" fill="url(#paint0_linear_0_1)"/>
<g id="Layer_1-2">
<path id="Vector" d="M82.7439 89.962H5.91487C5.46419 89.7831 5.01119 89.6042 4.56051 89.4277C1.79604 88.3498 0.0374679 85.6341 0.0328217 83.3063C-0.0159631 66.7636 0.000298506 50.221 0.014237 33.6783C0.014237 32.7374 0.00726775 31.8036 0.160591 30.8511C0.683285 27.5802 2.11431 24.7762 4.28407 22.3277C5.90558 20.4971 7.99403 19.31 10.115 18.1578C12.7169 16.7453 15.2816 15.2632 17.8788 13.8415C18.2388 13.644 18.3643 13.3559 18.4154 13.04C18.887 10.1687 20.1716 7.65044 21.8443 5.32503C22.2299 4.7884 22.5877 4.17743 23.3519 3.9033C25.5519 3.11345 27.7797 2.53268 30.0912 2.1215C32.865 1.62668 35.655 1.43154 38.4427 1.15742C40.0735 0.997123 41.7252 1.1156 43.3723 1.02732C45.7558 0.897231 48.1393 1.18529 50.5227 1.27822C52.9782 1.37579 55.4036 1.66617 57.8312 1.99373C60.145 2.30502 62.4169 2.78125 64.6099 3.58039C65.3719 3.85916 66.1618 4.10773 66.6961 4.81395C68.6242 7.35773 69.9716 10.164 70.5826 13.3071C70.6314 13.5557 70.6825 13.7067 70.9171 13.8345C72.3667 14.629 73.807 15.4374 75.2427 16.2551C77.5751 17.5839 80.0515 18.6781 82.2236 20.2718C85.2645 22.5019 87.3599 25.4104 88.3449 29.1088C88.5447 29.8638 88.4006 30.7419 89 31.3831V84.0544C88.7979 84.1264 88.6841 84.2495 88.6492 84.4818C88.461 85.7084 87.7548 86.6586 86.9696 87.5599C85.8429 88.8562 84.3143 89.4486 82.7416 89.9643L82.7439 89.962ZM43.0145 24.6508C42.694 24.667 42.4918 24.8041 42.3014 24.976C41.4488 25.7519 40.7124 26.637 39.9969 27.5337C38.761 29.0809 37.7922 30.793 36.9559 32.5911C36.4727 33.6318 35.6991 33.8479 34.6816 33.3019C30.7579 31.1995 27.2571 28.5024 23.8839 25.6241C22.0626 24.07 20.4318 22.3254 18.8289 20.5529C18.2458 19.9094 17.6232 19.2891 17.7161 18.26C17.8021 17.2982 17.7092 17.2657 16.8752 17.728C14.4336 19.0847 11.9549 20.3809 9.57373 21.8375C5.42935 24.372 3.01566 28.0611 2.99475 32.9883C2.93435 48.2231 2.97385 63.4579 2.94597 78.6927C2.94597 79.4245 3.12949 79.5824 3.845 79.5801C15.1677 79.5546 26.4928 79.5638 37.8155 79.5638C38.0757 79.5638 38.3382 79.5453 38.596 79.5755C39.4161 79.6707 40.0085 80.3514 39.9806 81.1435C39.9527 81.9404 39.4068 82.4677 38.5356 82.5235C38.2754 82.5397 38.0153 82.5304 37.7551 82.5304C26.4324 82.5304 15.1073 82.5304 3.7846 82.5258C3.29211 82.5258 2.82517 82.47 2.95759 83.2088C3.33393 85.2786 4.88575 86.9884 7.1554 86.9931C18.7685 87.0163 30.3816 86.9931 41.9947 87.021C42.8124 87.021 43.0354 86.8583 43.0354 86.0034C43.0076 65.8437 43.0145 45.6863 43.0145 25.5266C43.0145 25.2385 43.0145 24.9528 43.0145 24.6508ZM45.9927 24.4765C45.9927 24.8924 45.9927 25.1177 45.9927 25.3431C45.9927 45.6189 45.9974 65.8971 45.9765 86.173C45.9765 86.863 46.1646 87.0163 46.8314 87.0163C58.0983 86.9954 69.3653 87.0024 80.6323 87C81.3431 87 82.047 86.9907 82.7556 86.8444C84.1564 86.5563 85.6989 84.7861 85.908 83.3714C86.0288 82.549 85.7547 82.5165 85.081 82.5165C73.7838 82.5351 62.489 82.5304 51.1918 82.5281C50.8155 82.5281 50.4368 82.5327 50.0651 82.4816C49.2056 82.3632 48.7526 81.5269 48.9663 80.6813C49.2404 79.6057 50.0395 79.5615 50.9037 79.5615C62.259 79.5615 73.6119 79.5499 84.9648 79.5871C85.9033 79.5894 86.0567 79.3153 86.0567 78.4488C86.0288 63.9945 86.0334 49.5403 86.0404 35.0861C86.0404 33.6806 85.9312 32.296 85.7082 30.9068C85.1785 27.6266 83.5361 24.9551 80.9691 22.9944C78.1233 20.8177 74.792 19.3913 71.6837 17.6165C71.0542 17.2564 71.0983 17.6165 71.0913 18.0416C71.0797 18.6595 71.2261 19.31 70.7336 19.8397C70.0669 20.5529 69.4234 21.2893 68.7427 21.9885C66.4266 24.372 63.9572 26.5813 61.3042 28.593C58.995 30.3447 56.5999 31.9592 54.0701 33.3647C53.1107 33.899 52.4974 33.676 52.0002 32.6956C51.8725 32.4424 51.7563 32.1869 51.6355 31.9313C50.3067 29.1227 48.4366 26.7183 45.9904 24.4765H45.9927ZM47.6352 21.9095C47.6816 22.2417 47.9488 22.2046 48.0905 22.3393C50.316 24.4882 52.4091 26.7346 53.7704 29.5641C53.868 29.7662 53.9005 30.1123 54.3489 29.822C58.8533 26.9158 63.0488 23.6263 66.7797 19.77C67.5719 18.9522 68.4848 18.1299 68.1689 16.743C68.1062 16.4712 67.9877 16.211 67.9645 15.9229C67.7438 13.1561 66.8447 10.61 65.4486 8.21959C65.2139 7.81538 65.0931 7.87578 64.8701 8.16152C62.6841 10.9539 60.1171 13.3815 57.3828 15.6093C54.3791 18.0555 51.1128 20.1301 47.6375 21.9072L47.6352 21.9095ZM23.7051 7.85022C21.7676 10.9608 20.836 14.2643 20.6874 17.8093C20.6734 18.1183 20.7594 18.339 20.9917 18.5596C22.7503 20.2253 24.388 22.0071 26.2024 23.624C28.6602 25.8146 31.3364 27.694 34.0498 29.5385C34.6445 29.9428 34.9581 29.9265 35.3298 29.2063C36.7771 26.3931 38.8283 24.0514 41.256 21.9537C37.9177 20.2369 34.8187 18.2507 31.9125 15.9415C28.9111 13.558 26.2093 10.8888 23.7097 7.85022H23.7051ZM62.8351 5.91974C50.5111 3.36202 38.3266 3.27839 25.977 5.91974C27.3779 7.63418 28.7183 9.0861 30.1098 10.4962C30.4722 10.8633 30.8555 10.9399 31.2713 10.8563C33.8384 10.3429 36.4518 10.2291 39.0467 10.0339C42.4733 9.77606 45.9184 9.77141 49.3496 10.0293C50.2068 10.0943 51.0664 10.1013 51.9189 10.1872C53.8355 10.3847 55.7427 10.6472 57.6569 10.8609C57.9543 10.8935 58.2702 10.9399 58.5397 10.6635C59.98 9.18367 61.5086 7.78518 62.8328 5.92206L62.8351 5.91974ZM33.8058 13.5093C33.8012 13.572 33.7849 13.6161 33.7989 13.6254C34.0637 13.8391 34.3285 14.0505 34.598 14.2573C37.4949 16.4851 40.5939 18.3761 43.9136 19.9047C44.2365 20.0534 44.5013 20.0882 44.8591 19.921C47.8582 18.5364 50.6854 16.8591 53.3546 14.9263C53.9377 14.5059 54.6114 14.1458 55.0644 13.5232C47.9464 12.7287 40.8936 12.6079 33.8058 13.5069V13.5093Z" fill="white"/>
<path id="Vector_2" d="M68.0737 51.3849C65.1791 51.3849 62.2822 51.3199 59.3923 51.4082C57.4897 51.4662 56.2585 49.7797 56.3444 48.2975C56.4025 47.3172 56.3491 46.3299 56.363 45.3449C56.3816 43.7861 57.571 42.52 59.1229 42.5131C65.0839 42.4898 71.0472 42.4829 77.0106 42.5084C78.7436 42.5154 79.94 43.6096 80.0817 45.3774C80.1746 46.5413 80.2374 47.7284 79.9841 48.9039C79.6519 50.4441 78.5949 51.3733 77.0199 51.378C74.0394 51.3896 71.0565 51.3803 68.076 51.3803L68.0737 51.3849ZM68.234 48.423C70.492 48.423 72.7477 48.4323 75.0058 48.416C75.6934 48.4114 76.5832 48.7111 77.0129 48.2929C77.4473 47.8724 77.071 46.9734 77.1593 46.2927C77.2476 45.6028 76.992 45.4401 76.3137 45.4425C71.3655 45.4727 66.4173 45.4541 61.4692 45.4634C60.7815 45.4634 59.8732 45.1637 59.4643 45.5842C59.016 46.0441 59.3993 46.9618 59.3133 47.6703C59.239 48.2859 59.469 48.4393 60.073 48.4323C62.7933 48.3998 65.5137 48.4183 68.234 48.4183V48.423Z" fill="white"/>
</g>
</g>
</g>
</g>
</g>
<defs>
<filter id="filter0_d_0_1" x="-152" y="-208" width="1161" height="1186" filterUnits="userSpaceOnUse" color-interpolation-filters="sRGB">
<feFlood flood-opacity="0" result="BackgroundImageFix"/>
<feColorMatrix in="SourceAlpha" type="matrix" values="0 0 0 0 0 0 0 0 0 0 0 0 0 0 0 0 0 0 127 0" result="hardAlpha"/>
<feOffset dx="2" dy="4"/>
<feGaussianBlur stdDeviation="2"/>
<feComposite in2="hardAlpha" operator="out"/>
<feColorMatrix type="matrix" values="0 0 0 0 0.196078 0 0 0 0 0.317647 0 0 0 0 0.803922 0 0 0 0.25 0"/>
<feBlend mode="normal" in2="BackgroundImageFix" result="effect1_dropShadow_0_1"/>
<feBlend mode="normal" in="SourceGraphic" in2="effect1_dropShadow_0_1" result="shape"/>
</filter>
<linearGradient id="paint0_linear_0_1" x1="156" y1="-39" x2="156" y2="232.178" gradientUnits="userSpaceOnUse">
<stop stop-color="#FF7474"/>
<stop offset="1" stop-color="#EF5656"/>
</linearGradient>
<clipPath id="clip0_0_1">
<rect width="2560" height="1600" fill="white" transform="translate(-839 -451)"/>
</clipPath>
</defs>
</svg>
