<svg width="92" height="96" viewBox="0 0 92 96" fill="none" xmlns="http://www.w3.org/2000/svg">
<rect width="92" height="96" fill="#EBEBEB"/>
<g id="dashboard_Store shelf compliance_clothing" clip-path="url(#clip0_0_1)">
<rect width="2560" height="1600" transform="translate(-835 -771)" fill="white"/>
<rect id="background" x="-835" y="-771" width="2560" height="1600" fill="#ECF2FF"/>
<g id="catagory card">
<g id="Rectangle 40" filter="url(#filter0_d_0_1)">
<rect x="-146" y="-528" width="1153" height="1178" rx="105" fill="white"/>
</g>
<g id="health beauty button">
<g id="men&#39;s wear selected button">
<rect id="Rectangle 6" x="-79" y="-39" width="478" height="271.178" rx="30" fill="url(#paint0_linear_0_1)"/>
<g id="Layer_1-2">
<path id="Vector" d="M86.459 79.8542C87.6739 79.8542 88.8465 79.8436 90.0217 79.8542C91.2579 79.8674 91.9858 80.5926 91.991 81.834C92.0016 83.7504 92.0043 85.6668 91.991 87.5805C91.9831 88.8166 91.2526 89.5128 89.99 89.5313C88.3595 89.5578 88.3648 89.5604 87.9704 91.2306C87.7083 92.3397 87.4648 93.4567 87.1392 94.5472C86.8851 95.4021 86.3028 95.9554 85.3446 95.9845C85.1435 95.9898 84.9423 95.9845 84.7385 95.9845C66.4536 95.9845 48.1687 95.9845 29.8811 95.9818C29.1638 95.9818 28.4915 96.003 27.8086 95.508C27.2051 95.0713 26.5036 95.8733 25.7572 95.8521C25.4264 95.8415 24.9923 95.9765 24.6058 95.9792C18.8249 95.9898 13.0414 96.0268 7.26055 95.9686C4.65334 95.9421 2.6655 94.6398 1.23352 92.4932C0.362684 91.1803 -0.00523756 89.743 5.62712e-05 88.1284C0.042407 77.4746 -0.0105314 66.8207 0.042407 56.1642C0.0582885 53.0515 2.92225 49.7613 6.19649 49.3908C6.78411 49.3246 7.36378 49.224 7.95669 49.1764C9.07104 49.0837 10.1351 47.1594 9.70366 46.1562C9.61366 45.9498 9.45749 46.0001 9.30662 45.9524C8.41726 45.6824 8.07316 45.0551 8.08374 44.1472C8.10492 42.1303 8.0811 40.1133 8.09433 38.0964C8.10227 36.8126 8.63166 36.2938 9.92865 36.2912C14.0287 36.2832 18.1314 36.2832 22.2315 36.2912C23.4915 36.2912 24.2167 37.0059 24.2246 38.2473C24.2379 40.1954 24.2088 42.1462 24.2379 44.0943C24.2485 44.8169 23.9308 45.4707 23.375 45.6639C22.0859 46.1112 22.61 47.1091 22.6868 47.8185C22.7609 48.5199 23.3829 49.0599 24.1797 49.1923C25.0187 49.3325 25.8657 49.4305 26.6969 49.5999C27.4724 49.7587 27.4645 49.3246 27.4618 48.7688C27.4512 43.2235 27.4327 37.6782 27.4671 32.1329C27.4804 29.8301 28.383 27.8052 29.7752 26.0158C31.5116 23.7845 33.7959 22.416 36.6016 21.9687C37.1072 21.8893 37.1443 21.5823 37.1416 21.1826C37.131 19.8379 37.1575 18.4933 37.131 17.1487C37.1125 16.2408 37.4434 15.5499 38.3486 15.3541C38.8171 15.2535 38.7509 15.0153 38.7509 14.7294C38.7509 12.9824 38.7245 11.2328 38.7668 9.48585C38.7827 8.90088 38.5392 8.84529 38.0654 8.85059C36.2178 8.86911 34.3676 8.86647 32.5201 8.85588C31.2257 8.84794 30.662 8.33179 30.699 7.05068C30.7361 5.79075 30.519 4.52817 30.8472 3.26824C31.1993 1.89713 32.7345 0.793368 34.2512 0.793368C39.3941 0.793368 44.5371 0.788075 49.6801 0.793368C50.9215 0.793368 51.652 1.52656 51.6547 2.76532C51.6626 6.62982 51.6626 10.497 51.652 14.3615C51.652 14.9147 51.6494 15.3091 52.3296 15.5685C52.9437 15.8014 53.2984 16.4234 53.2799 17.1857C53.2508 18.5621 53.2799 19.9412 53.264 21.3202C53.2587 21.7358 53.3063 21.8893 53.8172 21.9978C56.12 22.4849 58.2058 23.4669 59.8257 25.2165C61.5118 27.0349 62.6314 29.1524 62.7452 31.6882C63.2138 42.0218 62.8352 52.3606 62.9279 62.6968C62.9358 63.5174 63.0973 63.7477 63.9522 63.7371C68.3885 63.6868 72.8247 63.7027 77.2636 63.7185C79.1376 63.7238 80.9984 63.8112 82.7851 64.5126C85.8052 65.6984 88.2854 68.8006 88.5845 72.2204C88.8174 74.8779 88.3145 77.2681 86.594 79.3565C86.504 79.4677 86.5093 79.6583 86.459 79.8489V79.8542ZM30.8446 92.7605C40.3179 92.7605 49.6298 92.7473 58.939 92.7817C59.7754 92.7843 59.7304 92.4085 59.7304 91.8262C59.7198 72.4004 59.7304 52.9721 59.7039 33.5463C59.7039 32.3473 59.6034 31.1006 59.1163 29.9809C57.6711 26.6432 54.9739 25.1424 51.4482 25.0047C49.7039 24.9386 47.9516 24.9571 46.2047 25.0021C43.1316 25.0815 40.0453 24.7427 36.9828 25.2006C33.3459 25.7432 30.8208 28.9354 30.7096 32.0138C30.5693 35.8412 30.6964 39.6766 30.6567 43.5067C30.6487 44.2293 30.8525 44.3749 31.5434 44.3722C36.9537 44.3405 42.3666 44.3537 47.7796 44.3563C49.4365 44.3563 50.0374 44.9704 50.04 46.6565C50.04 54.8249 50.04 62.9906 50.04 71.159C50.04 72.7657 49.4127 73.3983 47.8219 73.3983C42.9145 73.3983 38.0072 73.4116 33.0998 73.3824C32.4407 73.3798 32.2713 73.5492 32.2766 74.2056C32.3083 78.3057 32.2766 82.4058 32.3004 86.5059C32.3136 88.6657 32.1601 90.7753 30.8446 92.7579V92.7605ZM29.0659 72.591C29.0659 67.4825 29.0659 62.3739 29.0659 57.2654C29.0659 56.3628 28.8673 55.5078 28.4332 54.7243C27.5042 53.0435 25.9346 52.5247 24.1479 52.4056C22.6365 52.305 21.4295 51.6354 20.4872 50.4363C19.6746 49.4014 19.2855 48.2473 19.394 46.9503C19.4575 46.2012 19.2776 45.9048 18.4438 45.9471C16.935 46.0265 15.4184 46.008 13.907 45.9524C13.1605 45.926 12.9038 46.0795 12.9038 46.908C12.9038 49.9757 10.6671 52.3421 7.5173 52.4453C5.98474 52.4956 4.71951 53.1362 3.84603 54.5205C3.14989 55.619 3.31929 56.7916 3.23194 57.9641C3.17636 58.7159 3.39076 58.9064 4.15307 58.8985C8.52313 58.8562 12.8932 58.8747 17.2606 58.88C18.7111 58.88 19.3808 59.5549 19.3808 61.0134C19.3808 68.2051 19.3834 75.3967 19.3808 82.5911C19.3808 84.023 18.6899 84.6927 17.2288 84.6927C12.827 84.6954 8.42255 84.706 4.02072 84.6795C3.42517 84.6768 3.19224 84.7801 3.23194 85.4365C3.29812 86.5085 3.29547 87.5884 3.25047 88.6604C3.16312 90.6589 5.35742 92.7764 7.33467 92.7632C13.1499 92.7235 18.9652 92.7552 24.7779 92.7473C25.0664 92.7473 25.3496 92.7685 25.6566 92.6626C27.7927 91.9241 29.042 90.3201 29.0553 88.0172C29.087 82.8743 29.0659 77.734 29.0659 72.591ZM46.8161 58.9753C46.8161 55.4469 46.7976 51.9186 46.832 48.3902C46.8373 47.7285 46.6599 47.5644 46.0061 47.5697C42.0066 47.6015 38.0098 47.5697 34.0103 47.5962C32.9171 47.6041 31.4481 47.1144 30.8367 47.8C30.2967 48.4008 30.6699 49.8434 30.6937 50.9128C30.7043 51.4316 30.5031 51.9848 30.8419 52.4665C31.9828 54.0996 32.3136 55.9366 32.303 57.8847C32.2819 61.6804 32.311 65.4787 32.2845 69.2744C32.2792 69.9123 32.3401 70.2008 33.1156 70.1929C37.4169 70.1479 41.7181 70.1558 46.0194 70.1876C46.6917 70.1929 46.8399 69.997 46.8346 69.3538C46.8029 65.8943 46.8187 62.4321 46.8187 58.9726L46.8161 58.9753ZM3.24782 71.7863C3.24782 74.743 3.269 77.7022 3.23194 80.6588C3.224 81.3179 3.3987 81.4873 4.05513 81.482C7.81905 81.4502 11.583 81.4502 15.3469 81.482C16.006 81.4873 16.1727 81.3126 16.1701 80.6562C16.1436 74.7403 16.1436 68.8271 16.1701 62.9112C16.1727 62.2548 16.0033 62.0828 15.3469 62.088C11.583 62.1198 7.81905 62.1198 4.05513 62.088C3.39605 62.0828 3.224 62.2548 3.23194 62.9139C3.269 65.8705 3.24782 68.8297 3.24782 71.7863ZM71.6521 79.8515C74.1376 79.8515 76.6257 79.9177 79.1111 79.8383C83.4203 79.698 86.4219 75.807 85.1567 71.519C84.2541 68.4645 81.901 67.0007 78.5394 66.961C73.6003 66.9028 68.6611 66.9557 63.722 66.9319C63.1264 66.9293 62.9252 67.0378 62.9332 67.6889C62.9676 71.4846 62.9729 75.2829 62.9332 79.0786C62.9252 79.7986 63.1926 79.8727 63.7934 79.8674C66.4139 79.8409 69.0343 79.8568 71.6548 79.8542L71.6521 79.8515ZM75.8581 86.3073H86.4458C88.7777 86.3073 88.7406 86.3073 88.7883 83.9886C88.8042 83.2316 88.6083 83.0596 87.8566 83.0622C80.3605 83.094 72.8671 83.0807 65.371 83.0807C62.9199 83.0807 62.9464 83.0807 62.9305 85.5C62.9252 86.1591 63.0999 86.3285 63.7564 86.3232C67.7903 86.2915 71.8215 86.3073 75.8554 86.3073H75.8581ZM41.9749 9.61025C41.9749 11.291 41.9934 12.9718 41.9643 14.65C41.9564 15.1608 42.0781 15.3408 42.6234 15.3302C44.3359 15.2932 46.0511 15.2985 47.7637 15.3302C48.2772 15.3382 48.4466 15.2164 48.4413 14.6712C48.4148 11.344 48.4175 8.01681 48.4413 4.69228C48.4439 4.18142 48.3301 4.00143 47.7822 4.01202C46.0697 4.04908 44.3545 4.04378 42.6419 4.01202C42.1284 4.00408 41.9511 4.12584 41.9643 4.6711C42.0013 6.31749 41.9775 7.96387 41.9775 9.61025H41.9749ZM74.0502 89.5339H65.2836C62.9411 89.5339 62.9914 89.5339 62.9252 91.8367C62.9014 92.7023 63.2349 92.7764 63.9443 92.7738C69.8549 92.7499 75.7654 92.7632 81.6786 92.7579C82.5151 92.7579 83.5633 93.0279 84.127 92.6308C84.6273 92.2761 84.5161 91.1327 84.8179 90.3968C85.1593 89.5604 84.7914 89.5207 84.1244 89.526C80.7655 89.5445 77.4065 89.5339 74.0476 89.5339H74.0502ZM45.2015 18.541H42.7822C40.2967 18.541 40.3179 18.541 40.3444 21.0608C40.3497 21.6299 40.4979 21.7887 41.067 21.7808C43.2163 21.7464 45.3682 21.7675 47.5175 21.7675C50.1671 21.7675 50.1539 21.7675 50.0533 19.1471C50.0347 18.6654 49.9183 18.5198 49.4313 18.5304C48.0204 18.5621 46.6096 18.541 45.1988 18.541H45.2015ZM16.2574 39.5151H13.7376C11.2521 39.5151 11.2733 39.5151 11.2997 42.035C11.305 42.6041 11.4533 42.7629 12.0224 42.755C14.1717 42.7205 16.3236 42.7417 18.4729 42.7417C21.1225 42.7417 21.1092 42.7417 21.0086 40.1213C20.9901 39.6395 20.8737 39.494 20.3893 39.5045C19.0129 39.5363 17.6338 39.5151 16.2574 39.5151ZM36.4269 4.02261C35.7573 4.02261 35.085 4.0332 34.4153 4.01996C33.6265 4.00408 33.9706 4.59434 33.9177 4.94903C33.8621 5.3143 33.833 5.66634 34.4312 5.64517C35.6699 5.60282 36.914 5.60811 38.1527 5.64517C38.6504 5.6584 38.7509 5.489 38.7668 5.0205C38.7906 4.32436 38.7165 3.86379 37.8351 4.00673C37.3772 4.08084 36.8981 4.01996 36.4296 4.02261H36.4269Z" fill="white"/>
<path id="Vector_2" d="M56.4959 82.2948C56.4959 83.065 56.525 83.8379 56.488 84.6055C56.4456 85.5214 55.6171 86.3049 54.7569 86.2996C53.8675 86.2943 53.2852 85.6352 53.2746 84.5632C53.2587 83.0227 53.2587 81.4822 53.2746 79.9417C53.2878 78.9279 53.849 78.2873 54.6986 78.2503C55.5457 78.2132 56.4059 78.9941 56.4933 79.8834C56.4985 79.9496 56.4959 80.0184 56.4959 80.0846C56.4959 80.8204 56.4959 81.5589 56.4959 82.2948Z" fill="white"/>
<path id="Vector_3" d="M53.272 72.5831C53.272 72.3502 53.2667 72.1146 53.272 71.8817C53.3037 70.8679 53.8411 70.2273 54.6854 70.1823C55.5324 70.14 56.4192 70.9102 56.4853 71.797C56.5277 72.3634 56.5383 72.9378 56.4747 73.5016C56.3848 74.3248 55.4636 75.05 54.6669 74.9997C53.8517 74.9494 53.3143 74.3327 53.272 73.3851C53.2587 73.1178 53.272 72.8504 53.2693 72.5831H53.272Z" fill="white"/>
<path id="Vector_4" d="M70.8977 73.3981C69.9925 73.3981 69.0846 73.4008 68.1793 73.3981C66.8056 73.3928 66.1703 72.8687 66.1836 71.7597C66.1968 70.6718 66.832 70.1742 68.2296 70.1715C69.8734 70.1689 71.5197 70.1239 73.1635 70.1848C74.3943 70.2298 75.3922 69.8063 76.2948 69.0281C77.1074 68.3293 77.8909 68.4007 78.6267 69.2028C79.2911 69.928 79.2276 70.5077 78.4308 71.3362C77.1153 72.7073 75.4875 73.3399 73.6161 73.3902C72.7109 73.414 71.803 73.3955 70.8977 73.3955V73.3981Z" fill="white"/>
</g>
</g>
</g>
</g>
</g>
<defs>
<filter id="filter0_d_0_1" x="-148" y="-528" width="1161" height="1186" filterUnits="userSpaceOnUse" color-interpolation-filters="sRGB">
<feFlood flood-opacity="0" result="BackgroundImageFix"/>
<feColorMatrix in="SourceAlpha" type="matrix" values="0 0 0 0 0 0 0 0 0 0 0 0 0 0 0 0 0 0 127 0" result="hardAlpha"/>
<feOffset dx="2" dy="4"/>
<feGaussianBlur stdDeviation="2"/>
<feComposite in2="hardAlpha" operator="out"/>
<feColorMatrix type="matrix" values="0 0 0 0 0.196078 0 0 0 0 0.317647 0 0 0 0 0.803922 0 0 0 0.25 0"/>
<feBlend mode="normal" in2="BackgroundImageFix" result="effect1_dropShadow_0_1"/>
<feBlend mode="normal" in="SourceGraphic" in2="effect1_dropShadow_0_1" result="shape"/>
</filter>
<linearGradient id="paint0_linear_0_1" x1="160" y1="-39" x2="160" y2="232.178" gradientUnits="userSpaceOnUse">
<stop stop-color="#5CD47E"/>
<stop offset="1" stop-color="#4CCF9D"/>
</linearGradient>
<clipPath id="clip0_0_1">
<rect width="2560" height="1600" fill="white" transform="translate(-835 -771)"/>
</clipPath>
</defs>
</svg>
